<svg width="20" height="18" viewBox="0 0 20 18" fill="none" xmlns="http://www.w3.org/2000/svg">
<path d="M17.66 0.990013C15.02 -0.809987 11.76 0.0300133 9.99997 2.09001C8.23997 0.0300133 4.97997 -0.819987 2.33997 0.990013C0.939969 1.95001 0.0599691 3.57001 -3.09171e-05 5.28001C-0.140031 9.16001 3.29997 12.27 8.54997 17.04L8.64997 17.13C9.40997 17.82 10.58 17.82 11.34 17.12L11.45 17.02C16.7 12.26 20.13 9.15001 20 5.27001C19.94 3.57001 19.06 1.95001 17.66 0.990013ZM10.1 15.55L9.99997 15.65L9.89997 15.55C5.13997 11.24 1.99997 8.39001 1.99997 5.50001C1.99997 3.50001 3.49997 2.00001 5.49997 2.00001C7.03997 2.00001 8.53997 2.99001 9.06997 4.36001H10.94C11.46 2.99001 12.96 2.00001 14.5 2.00001C16.5 2.00001 18 3.50001 18 5.50001C18 8.39001 14.86 11.24 10.1 15.55Z" fill="black"/>
</svg>
